<svg xmlns="http://www.w3.org/2000/svg" viewBox="0 0 64 64" width="64" height="64">
  <circle cx="32" cy="32" r="32" fill="#181717"/>
  <path d="M32 6C17.9 6 6.7 17.1 6.7 31.1c0 11.1 7.2 20.5 17.1 23.9 1.3.2 1.7-.6 1.7-1.2v-4.2c-7.0 1.5-8.5-3.4-8.5-3.4-1.1-2.9-2.8-3.7-2.8-3.7-2.3-1.6.2-1.5.2-1.5 2.5.2 3.8 2.6 3.8 2.6 2.2 3.8 5.8 2.7 7.3 2.1.2-1.6.9-2.7 1.6-3.3-5.6-.6-11.5-2.8-11.5-12.5 0-2.8 1-5 2.6-6.8-.3-.6-1.1-3.2.2-6.7 0 0 2.1-.7 6.9 2.6 2-.6 4.1-.9 6.2-.9s4.2.3 6.2.9c4.8-3.3 6.9-2.6 6.9-2.6 1.3 3.5.5 6.1.2 6.7 1.6 1.8 2.6 4 2.6 6.8 0 9.7-5.9 11.9-11.5 12.5.9.8 1.7 2.3 1.7 4.6v6.8c0 .7.4 1.4 1.7 1.2 10-3.3 17.2-12.8 17.2-23.9C57.3 17.1 46.1 6 32 6z" fill="#fff"/>
</svg>